<?xml version="1.0" encoding="utf-8"?>
<svg xmlns="http://www.w3.org/2000/svg" viewBox="215.8802 265.3358 20.01 20" width="64px" height="64px">
  <path class="cls-1" d="M 17.5 11.17 C 17.5 11.44 17.5 11.71 17.5 12 C 17.5 12.29 17.5 12.56 17.5 12.83 L 22 12.83 L 22 11.17 L 17.5 11.17 Z" style="fill: rgb(66, 133, 244); transform-origin: 19.75px 12px;" transform="matrix(-1, 0, 0, -1, 213.89022446, 263.33579254)"/>
  <path class="cls-1" d="M9.86,5.89H7V7.56h3.93A10,10,0,0,0,9.86,5.89Z" style="fill: rgb(66, 133, 244);" transform="matrix(1, 0, 0, 1, 213.89022827148438, 263.3357849121094)"/>
  <path class="cls-1" d="M11,16.44H7.6v1.67H9.89A10.7,10.7,0,0,0,11,16.44Z" style="fill: rgb(66, 133, 244);" transform="matrix(1, 0, 0, 1, 213.89022827148438, 263.3357849121094)"/>
  <path class="cls-1" d="M12,12a7.45,7.45,0,0,0,0-.83H4.5v1.66H12A7.45,7.45,0,0,0,12,12Z" style="fill: rgb(66, 133, 244);" transform="matrix(1, 0, 0, 1, 213.89022827148438, 263.3357849121094)"/>
  <path class="cls-2" d="M3.67,12.48A.48.48,0,1,1,4.14,12,.48.48,0,0,1,3.67,12.48Zm0-2.15A1.67,1.67,0,1,0,5.33,12,1.67,1.67,0,0,0,3.67,10.33Z" style="fill: rgb(102, 157, 246);" transform="matrix(1, 0, 0, 1, 213.89022827148438, 263.3357849121094)"/>
  <path class="cls-2" d="M6.17,17.75a.48.48,0,1,1,.47-.48A.47.47,0,0,1,6.17,17.75Zm0-2.14a1.67,1.67,0,1,0,1.66,1.66A1.67,1.67,0,0,0,6.17,15.61Z" style="fill: rgb(102, 157, 246);" transform="matrix(1, 0, 0, 1, 213.89022827148438, 263.3357849121094)"/>
  <path class="cls-2" d="M6.17,7.2a.48.48,0,1,1,.47-.47A.47.47,0,0,1,6.17,7.2Zm0-2.14a1.67,1.67,0,1,0,0,3.33,1.67,1.67,0,0,0,0-3.33Z" style="fill: rgb(102, 157, 246);" transform="matrix(1, 0, 0, 1, 213.89022827148438, 263.3357849121094)"/>
  <polygon class="cls-1" points="15.3 14.5 15.3 9.5 18.63 12 15.3 14.5" style="fill: rgb(66, 133, 244); transform-origin: 16.965px 12px;" transform="matrix(-1, 0, 0, -1, 213.8902359, 263.33579254)"/>
  <path class="cls-1" d="M9.5,22l-.86-1.5A10.73,10.73,0,0,0,12.83,12a10.89,10.89,0,0,0-4.2-8.5L9.5,2a12.53,12.53,0,0,1,5,10A12.46,12.46,0,0,1,9.5,22Z" style="fill: rgb(66, 133, 244);" transform="matrix(1, 0, 0, 1, 213.89022827148438, 263.3357849121094)"/>
</svg>